<?xml version="1.0" encoding="UTF-8" standalone="no"?>
<!DOCTYPE svg PUBLIC "-//W3C//DTD SVG 1.1//EN"
 "http://www.w3.org/Graphics/SVG/1.1/DTD/svg11.dtd">
<!-- Generated by graphviz version 2.38.0 (20140413.2041)
 -->
<!-- Title: G Pages: 1 -->
<svg width="631pt" height="268pt"
 viewBox="0.00 0.00 631.09 267.98" xmlns="http://www.w3.org/2000/svg" xmlns:xlink="http://www.w3.org/1999/xlink">
<g id="graph0" class="graph" transform="scale(1 1) rotate(0) translate(7.992 259.992)">
<title>G</title>
<polygon fill="#000000" stroke="none" points="-7.992,7.992 -7.992,-259.992 623.096,-259.992 623.096,7.992 -7.992,7.992"/>
<!-- index -->
<g id="node1" class="node"><title>index</title>
<ellipse fill="none" stroke="#c6c5fe" cx="316.945" cy="-234" rx="32.4942" ry="18"/>
<text text-anchor="middle" x="316.945" y="-230.3" font-family="Arial" font-size="14.00" fill="#c6c5fe">index</text>
</g>
<!-- lib/assert -->
<g id="node2" class="node"><title>lib/assert</title>
<ellipse fill="none" stroke="#c6c5fe" cx="155.945" cy="-162" rx="48.1917" ry="18"/>
<text text-anchor="middle" x="155.945" y="-158.3" font-family="Arial" font-size="14.00" fill="#c6c5fe">lib/assert</text>
</g>
<!-- index&#45;&gt;lib/assert -->
<g id="edge1" class="edge"><title>index&#45;&gt;lib/assert</title>
<path fill="none" stroke="#757575" d="M292.142,-222.216C266.354,-211.004 225.608,-193.288 195.396,-180.153"/>
<polygon fill="#757575" stroke="#757575" points="196.555,-176.84 185.989,-176.063 193.764,-183.26 196.555,-176.84"/>
</g>
<!-- lib/fun&#45;function -->
<g id="node3" class="node"><title>lib/fun&#45;function</title>
<ellipse fill="none" stroke="#c6c5fe" cx="316.945" cy="-162" rx="70.3881" ry="18"/>
<text text-anchor="middle" x="316.945" y="-158.3" font-family="Arial" font-size="14.00" fill="#c6c5fe">lib/fun&#45;function</text>
</g>
<!-- index&#45;&gt;lib/fun&#45;function -->
<g id="edge2" class="edge"><title>index&#45;&gt;lib/fun&#45;function</title>
<path fill="none" stroke="#757575" d="M316.945,-215.697C316.945,-207.983 316.945,-198.712 316.945,-190.112"/>
<polygon fill="#757575" stroke="#757575" points="320.445,-190.104 316.945,-180.104 313.445,-190.104 320.445,-190.104"/>
</g>
<!-- lib/set&#45;prop -->
<g id="node4" class="node"><title>lib/set&#45;prop</title>
<ellipse fill="none" stroke="#cfffac" cx="393.945" cy="-18" rx="57.3905" ry="18"/>
<text text-anchor="middle" x="393.945" y="-14.3" font-family="Arial" font-size="14.00" fill="#cfffac">lib/set&#45;prop</text>
</g>
<!-- index&#45;&gt;lib/set&#45;prop -->
<g id="edge3" class="edge"><title>index&#45;&gt;lib/set&#45;prop</title>
<path fill="none" stroke="#757575" d="M348.966,-230.248C411.385,-222.958 548.336,-197.084 606.945,-108 644.838,-50.4034 535.624,-30.0258 459.897,-22.8544"/>
<polygon fill="#757575" stroke="#757575" points="460.187,-19.3665 449.916,-21.9662 459.566,-26.3389 460.187,-19.3665"/>
</g>
<!-- lib/stringify -->
<g id="node5" class="node"><title>lib/stringify</title>
<ellipse fill="none" stroke="#cfffac" cx="53.9452" cy="-90" rx="53.8905" ry="18"/>
<text text-anchor="middle" x="53.9452" y="-86.3" font-family="Arial" font-size="14.00" fill="#cfffac">lib/stringify</text>
</g>
<!-- lib/assert&#45;&gt;lib/stringify -->
<g id="edge4" class="edge"><title>lib/assert&#45;&gt;lib/stringify</title>
<path fill="none" stroke="#757575" d="M133.813,-145.811C119.476,-135.972 100.601,-123.019 84.8004,-112.175"/>
<polygon fill="#757575" stroke="#757575" points="86.6123,-109.174 76.3867,-106.401 82.6514,-114.945 86.6123,-109.174"/>
</g>
<!-- lib/fun&#45;function&#45;&gt;lib/set&#45;prop -->
<g id="edge9" class="edge"><title>lib/fun&#45;function&#45;&gt;lib/set&#45;prop</title>
<path fill="none" stroke="#757575" d="M259.922,-151.419C200.8,-139.01 121.353,-113.858 154.945,-72 176.396,-45.2718 265.669,-31.1859 328.801,-24.4211"/>
<polygon fill="#757575" stroke="#757575" points="329.498,-27.8678 339.085,-23.3584 328.778,-20.9049 329.498,-27.8678"/>
</g>
<!-- lib/fun&#45;compose -->
<g id="node6" class="node"><title>lib/fun&#45;compose</title>
<ellipse fill="none" stroke="#cfffac" cx="240.945" cy="-90" rx="77.1866" ry="18"/>
<text text-anchor="middle" x="240.945" y="-86.3" font-family="Arial" font-size="14.00" fill="#cfffac">lib/fun&#45;compose</text>
</g>
<!-- lib/fun&#45;function&#45;&gt;lib/fun&#45;compose -->
<g id="edge6" class="edge"><title>lib/fun&#45;function&#45;&gt;lib/fun&#45;compose</title>
<path fill="none" stroke="#757575" d="M298.934,-144.411C289.256,-135.497 277.16,-124.355 266.522,-114.558"/>
<polygon fill="#757575" stroke="#757575" points="268.817,-111.913 259.09,-107.713 264.075,-117.062 268.817,-111.913"/>
</g>
<!-- lib/fun&#45;curry -->
<g id="node7" class="node"><title>lib/fun&#45;curry</title>
<ellipse fill="none" stroke="#c6c5fe" cx="393.945" cy="-90" rx="57.6901" ry="18"/>
<text text-anchor="middle" x="393.945" y="-86.3" font-family="Arial" font-size="14.00" fill="#c6c5fe">lib/fun&#45;curry</text>
</g>
<!-- lib/fun&#45;function&#45;&gt;lib/fun&#45;curry -->
<g id="edge7" class="edge"><title>lib/fun&#45;function&#45;&gt;lib/fun&#45;curry</title>
<path fill="none" stroke="#757575" d="M335.193,-144.411C345.142,-135.367 357.613,-124.03 368.502,-114.13"/>
<polygon fill="#757575" stroke="#757575" points="371.049,-116.545 376.094,-107.228 366.34,-111.365 371.049,-116.545"/>
</g>
<!-- lib/fun&#45;unfold -->
<g id="node8" class="node"><title>lib/fun&#45;unfold</title>
<ellipse fill="none" stroke="#cfffac" cx="533.945" cy="-90" rx="63.8893" ry="18"/>
<text text-anchor="middle" x="533.945" y="-86.3" font-family="Arial" font-size="14.00" fill="#cfffac">lib/fun&#45;unfold</text>
</g>
<!-- lib/fun&#45;function&#45;&gt;lib/fun&#45;unfold -->
<g id="edge8" class="edge"><title>lib/fun&#45;function&#45;&gt;lib/fun&#45;unfold</title>
<path fill="none" stroke="#757575" d="M358.785,-147.503C394.511,-135.979 445.98,-119.376 483.885,-107.148"/>
<polygon fill="#757575" stroke="#757575" points="485.259,-110.383 493.701,-103.982 483.11,-103.721 485.259,-110.383"/>
</g>
<!-- lib/fun&#45;curry&#45;&gt;lib/set&#45;prop -->
<g id="edge5" class="edge"><title>lib/fun&#45;curry&#45;&gt;lib/set&#45;prop</title>
<path fill="none" stroke="#757575" d="M393.945,-71.6966C393.945,-63.9827 393.945,-54.7125 393.945,-46.1124"/>
<polygon fill="#757575" stroke="#757575" points="397.445,-46.1043 393.945,-36.1043 390.445,-46.1044 397.445,-46.1043"/>
</g>
</g>
</svg>
