<?xml version="1.0" encoding="UTF-8" standalone="no"?>
<!DOCTYPE svg PUBLIC "-//W3C//DTD SVG 1.1//EN"
 "http://www.w3.org/Graphics/SVG/1.1/DTD/svg11.dtd">
<!-- Generated by graphviz version 2.38.0 (20140413.2041)
 -->
<!-- Title: G Pages: 1 -->
<svg width="617pt" height="196pt"
 viewBox="0.00 0.00 617.31 195.98" xmlns="http://www.w3.org/2000/svg" xmlns:xlink="http://www.w3.org/1999/xlink">
<g id="graph0" class="graph" transform="scale(1 1) rotate(0) translate(7.992 187.992)">
<title>G</title>
<polygon fill="#000000" stroke="none" points="-7.992,7.992 -7.992,-187.992 609.321,-187.992 609.321,7.992 -7.992,7.992"/>
<!-- index.js -->
<g id="node1" class="node"><title>index.js</title>
<ellipse fill="none" stroke="#c6c5fe" cx="277.035" cy="-162" rx="42.4939" ry="18"/>
<text text-anchor="middle" x="277.035" y="-158.3" font-family="Arial" font-size="14.00" fill="#c6c5fe">index.js</text>
</g>
<!-- ../node_modules/fun&#45;curry/src/index.js -->
<g id="node2" class="node"><title>../node_modules/fun&#45;curry/src/index.js</title>
<ellipse fill="none" stroke="#cfffac" cx="167.035" cy="-90" rx="167.07" ry="18"/>
<text text-anchor="middle" x="167.035" y="-86.3" font-family="Arial" font-size="14.00" fill="#cfffac">../node_modules/fun&#45;curry/src/index.js</text>
</g>
<!-- index.js&#45;&gt;../node_modules/fun&#45;curry/src/index.js -->
<g id="edge1" class="edge"><title>index.js&#45;&gt;../node_modules/fun&#45;curry/src/index.js</title>
<path fill="none" stroke="#757575" d="M254.51,-146.666C239.415,-137.06 219.237,-124.22 202.065,-113.292"/>
<polygon fill="#757575" stroke="#757575" points="203.717,-110.195 193.401,-107.779 199.959,-116.1 203.717,-110.195"/>
</g>
<!-- utils.js -->
<g id="node3" class="node"><title>utils.js</title>
<ellipse fill="none" stroke="#c6c5fe" cx="388.035" cy="-90" rx="36.2938" ry="18"/>
<text text-anchor="middle" x="388.035" y="-86.3" font-family="Arial" font-size="14.00" fill="#c6c5fe">utils.js</text>
</g>
<!-- index.js&#45;&gt;utils.js -->
<g id="edge2" class="edge"><title>index.js&#45;&gt;utils.js</title>
<path fill="none" stroke="#757575" d="M299.766,-146.666C316.554,-136.078 339.575,-121.561 357.897,-110.006"/>
<polygon fill="#757575" stroke="#757575" points="359.875,-112.897 366.467,-104.602 356.141,-106.976 359.875,-112.897"/>
</g>
<!-- ../node_modules/stringify&#45;anything/src/index.js -->
<g id="node6" class="node"><title>../node_modules/stringify&#45;anything/src/index.js</title>
<ellipse fill="none" stroke="#cfffac" cx="388.035" cy="-18" rx="199.565" ry="18"/>
<text text-anchor="middle" x="388.035" y="-14.3" font-family="Arial" font-size="14.00" fill="#cfffac">../node_modules/stringify&#45;anything/src/index.js</text>
</g>
<!-- utils.js&#45;&gt;../node_modules/stringify&#45;anything/src/index.js -->
<g id="edge3" class="edge"><title>utils.js&#45;&gt;../node_modules/stringify&#45;anything/src/index.js</title>
<path fill="none" stroke="#757575" d="M388.035,-71.6966C388.035,-63.9827 388.035,-54.7125 388.035,-46.1124"/>
<polygon fill="#757575" stroke="#757575" points="391.535,-46.1043 388.035,-36.1043 384.535,-46.1044 391.535,-46.1043"/>
</g>
<!-- lib/assert.js -->
<g id="node4" class="node"><title>lib/assert.js</title>
<ellipse fill="none" stroke="#cfffac" cx="394.035" cy="-162" rx="57.3905" ry="18"/>
<text text-anchor="middle" x="394.035" y="-158.3" font-family="Arial" font-size="14.00" fill="#cfffac">lib/assert.js</text>
</g>
<!-- lib/set&#45;prop.js -->
<g id="node5" class="node"><title>lib/set&#45;prop.js</title>
<ellipse fill="none" stroke="#cfffac" cx="535.035" cy="-162" rx="66.0889" ry="18"/>
<text text-anchor="middle" x="535.035" y="-158.3" font-family="Arial" font-size="14.00" fill="#cfffac">lib/set&#45;prop.js</text>
</g>
</g>
</svg>
