<?xml version="1.0" encoding="UTF-8" standalone="no"?>
<!DOCTYPE svg PUBLIC "-//W3C//DTD SVG 1.1//EN"
 "http://www.w3.org/Graphics/SVG/1.1/DTD/svg11.dtd">
<!-- Generated by graphviz version 2.38.0 (20140413.2041)
 -->
<!-- Title: G Pages: 1 -->
<svg width="476pt" height="196pt"
 viewBox="0.00 0.00 476.17 195.98" xmlns="http://www.w3.org/2000/svg" xmlns:xlink="http://www.w3.org/1999/xlink">
<g id="graph0" class="graph" transform="scale(1 1) rotate(0) translate(7.992 187.992)">
<title>G</title>
<polygon fill="#000000" stroke="none" points="-7.992,7.992 -7.992,-187.992 468.179,-187.992 468.179,7.992 -7.992,7.992"/>
<!-- index -->
<g id="node1" class="node"><title>index</title>
<ellipse fill="none" stroke="#c6c5fe" cx="263.992" cy="-162" rx="32.4942" ry="18"/>
<text text-anchor="middle" x="263.992" y="-158.3" font-family="Arial" font-size="14.00" fill="#c6c5fe">index</text>
</g>
<!-- lib/assert -->
<g id="node2" class="node"><title>lib/assert</title>
<ellipse fill="none" stroke="#c6c5fe" cx="108.992" cy="-90" rx="48.1917" ry="18"/>
<text text-anchor="middle" x="108.992" y="-86.3" font-family="Arial" font-size="14.00" fill="#c6c5fe">lib/assert</text>
</g>
<!-- index&#45;&gt;lib/assert -->
<g id="edge1" class="edge"><title>index&#45;&gt;lib/assert</title>
<path fill="none" stroke="#757575" d="M239.432,-149.908C214.813,-138.79 176.543,-121.507 147.811,-108.531"/>
<polygon fill="#757575" stroke="#757575" points="149.02,-105.237 138.466,-104.311 146.139,-111.617 149.02,-105.237"/>
</g>
<!-- lib/fun&#45;function -->
<g id="node3" class="node"><title>lib/fun&#45;function</title>
<ellipse fill="none" stroke="#c6c5fe" cx="263.992" cy="-90" rx="70.3881" ry="18"/>
<text text-anchor="middle" x="263.992" y="-86.3" font-family="Arial" font-size="14.00" fill="#c6c5fe">lib/fun&#45;function</text>
</g>
<!-- index&#45;&gt;lib/fun&#45;function -->
<g id="edge2" class="edge"><title>index&#45;&gt;lib/fun&#45;function</title>
<path fill="none" stroke="#757575" d="M263.992,-143.697C263.992,-135.983 263.992,-126.712 263.992,-118.112"/>
<polygon fill="#757575" stroke="#757575" points="267.492,-118.104 263.992,-108.104 260.492,-118.104 267.492,-118.104"/>
</g>
<!-- lib/set&#45;prop -->
<g id="node4" class="node"><title>lib/set&#45;prop</title>
<ellipse fill="none" stroke="#cfffac" cx="402.992" cy="-18" rx="57.3905" ry="18"/>
<text text-anchor="middle" x="402.992" y="-14.3" font-family="Arial" font-size="14.00" fill="#cfffac">lib/set&#45;prop</text>
</g>
<!-- index&#45;&gt;lib/set&#45;prop -->
<g id="edge3" class="edge"><title>index&#45;&gt;lib/set&#45;prop</title>
<path fill="none" stroke="#757575" d="M286.808,-148.887C303.582,-139.264 326.273,-124.681 342.992,-108 361.838,-89.1965 378.335,-63.6626 389.236,-44.7663"/>
<polygon fill="#757575" stroke="#757575" points="392.415,-46.2534 394.267,-35.8215 386.314,-42.8221 392.415,-46.2534"/>
</g>
<!-- lib/stringify&#45;anything -->
<g id="node5" class="node"><title>lib/stringify&#45;anything</title>
<ellipse fill="none" stroke="#cfffac" cx="90.9919" cy="-18" rx="90.9839" ry="18"/>
<text text-anchor="middle" x="90.9919" y="-14.3" font-family="Arial" font-size="14.00" fill="#cfffac">lib/stringify&#45;anything</text>
</g>
<!-- lib/assert&#45;&gt;lib/stringify&#45;anything -->
<g id="edge4" class="edge"><title>lib/assert&#45;&gt;lib/stringify&#45;anything</title>
<path fill="none" stroke="#757575" d="M104.635,-72.055C102.63,-64.2609 100.203,-54.8219 97.9551,-46.0789"/>
<polygon fill="#757575" stroke="#757575" points="101.314,-45.0886 95.4341,-36.2753 94.5349,-46.8319 101.314,-45.0886"/>
</g>
<!-- lib/fun&#45;function&#45;&gt;lib/set&#45;prop -->
<g id="edge6" class="edge"><title>lib/fun&#45;function&#45;&gt;lib/set&#45;prop</title>
<path fill="none" stroke="#757575" d="M294.496,-73.6382C315.194,-63.2146 342.715,-49.3552 364.859,-38.2034"/>
<polygon fill="#757575" stroke="#757575" points="366.628,-41.2316 373.985,-33.6077 363.48,-34.9796 366.628,-41.2316"/>
</g>
<!-- lib/fun&#45;function&#45;&gt;lib/stringify&#45;anything -->
<g id="edge7" class="edge"><title>lib/fun&#45;function&#45;&gt;lib/stringify&#45;anything</title>
<path fill="none" stroke="#757575" d="M228.146,-74.496C202.182,-63.9902 166.816,-49.6804 138.501,-38.2231"/>
<polygon fill="#757575" stroke="#757575" points="139.775,-34.963 129.192,-34.4566 137.149,-41.452 139.775,-34.963"/>
</g>
<!-- lib/fun&#45;unfold -->
<g id="node6" class="node"><title>lib/fun&#45;unfold</title>
<ellipse fill="none" stroke="#cfffac" cx="263.992" cy="-18" rx="63.8893" ry="18"/>
<text text-anchor="middle" x="263.992" y="-14.3" font-family="Arial" font-size="14.00" fill="#cfffac">lib/fun&#45;unfold</text>
</g>
<!-- lib/fun&#45;function&#45;&gt;lib/fun&#45;unfold -->
<g id="edge5" class="edge"><title>lib/fun&#45;function&#45;&gt;lib/fun&#45;unfold</title>
<path fill="none" stroke="#757575" d="M263.992,-71.6966C263.992,-63.9827 263.992,-54.7125 263.992,-46.1124"/>
<polygon fill="#757575" stroke="#757575" points="267.492,-46.1043 263.992,-36.1043 260.492,-46.1044 267.492,-46.1043"/>
</g>
</g>
</svg>
