<?xml version="1.0" encoding="UTF-8" standalone="no"?>
<!DOCTYPE svg PUBLIC "-//W3C//DTD SVG 1.1//EN"
 "http://www.w3.org/Graphics/SVG/1.1/DTD/svg11.dtd">
<!-- Generated by graphviz version 2.38.0 (20140413.2041)
 -->
<!-- Title: G Pages: 1 -->
<svg width="768pt" height="124pt"
 viewBox="0.00 0.00 767.55 123.98" xmlns="http://www.w3.org/2000/svg" xmlns:xlink="http://www.w3.org/1999/xlink">
<g id="graph0" class="graph" transform="scale(1 1) rotate(0) translate(7.992 115.992)">
<title>G</title>
<polygon fill="#000000" stroke="none" points="-7.992,7.992 -7.992,-115.992 759.559,-115.992 759.559,7.992 -7.992,7.992"/>
<!-- index.js -->
<g id="node1" class="node"><title>index.js</title>
<ellipse fill="none" stroke="#c6c5fe" cx="359.035" cy="-90" rx="42.4939" ry="18"/>
<text text-anchor="middle" x="359.035" y="-86.3" font-family="Arial" font-size="14.00" fill="#c6c5fe">index.js</text>
</g>
<!-- ../node_modules/fun&#45;curry/src/index.js -->
<g id="node2" class="node"><title>../node_modules/fun&#45;curry/src/index.js</title>
<ellipse fill="none" stroke="#cfffac" cx="167.035" cy="-18" rx="167.07" ry="18"/>
<text text-anchor="middle" x="167.035" y="-14.3" font-family="Arial" font-size="14.00" fill="#cfffac">../node_modules/fun&#45;curry/src/index.js</text>
</g>
<!-- index.js&#45;&gt;../node_modules/fun&#45;curry/src/index.js -->
<g id="edge1" class="edge"><title>index.js&#45;&gt;../node_modules/fun&#45;curry/src/index.js</title>
<path fill="none" stroke="#757575" d="M327.76,-77.5975C299.01,-67.1157 255.762,-51.3485 221.369,-38.809"/>
<polygon fill="#757575" stroke="#757575" points="222.516,-35.502 211.922,-35.3649 220.118,-42.0786 222.516,-35.502"/>
</g>
<!-- ../node_modules/stringify&#45;anything/src/index.js -->
<g id="node3" class="node"><title>../node_modules/stringify&#45;anything/src/index.js</title>
<ellipse fill="none" stroke="#cfffac" cx="552.035" cy="-18" rx="199.565" ry="18"/>
<text text-anchor="middle" x="552.035" y="-14.3" font-family="Arial" font-size="14.00" fill="#cfffac">../node_modules/stringify&#45;anything/src/index.js</text>
</g>
<!-- index.js&#45;&gt;../node_modules/stringify&#45;anything/src/index.js -->
<g id="edge2" class="edge"><title>index.js&#45;&gt;../node_modules/stringify&#45;anything/src/index.js</title>
<path fill="none" stroke="#757575" d="M390.044,-77.7533C418.777,-67.3321 462.176,-51.5915 496.824,-39.0249"/>
<polygon fill="#757575" stroke="#757575" points="498.137,-42.2716 506.345,-35.5717 495.75,-35.6911 498.137,-42.2716"/>
</g>
</g>
</svg>
