<?xml version="1.0" encoding="UTF-8" standalone="no"?>
<!DOCTYPE svg PUBLIC "-//W3C//DTD SVG 1.1//EN"
 "http://www.w3.org/Graphics/SVG/1.1/DTD/svg11.dtd">
<!-- Generated by graphviz version 2.38.0 (20140413.2041)
 -->
<!-- Title: G Pages: 1 -->
<svg width="951pt" height="124pt"
 viewBox="0.00 0.00 950.76 123.98" xmlns="http://www.w3.org/2000/svg" xmlns:xlink="http://www.w3.org/1999/xlink">
<g id="graph0" class="graph" transform="scale(1 1) rotate(0) translate(7.992 115.992)">
<title>G</title>
<polygon fill="#000000" stroke="none" points="-7.992,7.992 -7.992,-115.992 942.767,-115.992 942.767,7.992 -7.992,7.992"/>
<!-- src/index -->
<g id="node1" class="node"><title>src/index</title>
<ellipse fill="none" stroke="#c6c5fe" cx="497.336" cy="-90" rx="48.1917" ry="18"/>
<text text-anchor="middle" x="497.336" y="-86.3" font-family="Arial" font-size="14.00" fill="#c6c5fe">src/index</text>
</g>
<!-- node_modules/fun&#45;assert/src/index -->
<g id="node2" class="node"><title>node_modules/fun&#45;assert/src/index</title>
<ellipse fill="none" stroke="#cfffac" cx="155.336" cy="-18" rx="155.173" ry="18"/>
<text text-anchor="middle" x="155.336" y="-14.3" font-family="Arial" font-size="14.00" fill="#cfffac">node_modules/fun&#45;assert/src/index</text>
</g>
<!-- src/index&#45;&gt;node_modules/fun&#45;assert/src/index -->
<g id="edge1" class="edge"><title>src/index&#45;&gt;node_modules/fun&#45;assert/src/index</title>
<path fill="none" stroke="#757575" d="M456.083,-80.5564C402.32,-69.5523 307.048,-50.0521 238.116,-35.9431"/>
<polygon fill="#757575" stroke="#757575" points="238.643,-32.4786 228.144,-33.9023 237.239,-39.3365 238.643,-32.4786"/>
</g>
<!-- node_modules/fun&#45;compose/src/index -->
<g id="node3" class="node"><title>node_modules/fun&#45;compose/src/index</title>
<ellipse fill="none" stroke="#cfffac" cx="497.336" cy="-18" rx="168.97" ry="18"/>
<text text-anchor="middle" x="497.336" y="-14.3" font-family="Arial" font-size="14.00" fill="#cfffac">node_modules/fun&#45;compose/src/index</text>
</g>
<!-- src/index&#45;&gt;node_modules/fun&#45;compose/src/index -->
<g id="edge2" class="edge"><title>src/index&#45;&gt;node_modules/fun&#45;compose/src/index</title>
<path fill="none" stroke="#757575" d="M497.336,-71.6966C497.336,-63.9827 497.336,-54.7125 497.336,-46.1124"/>
<polygon fill="#757575" stroke="#757575" points="500.836,-46.1043 497.336,-36.1043 493.836,-46.1044 500.836,-46.1043"/>
</g>
<!-- node_modules/ramda/index -->
<g id="node4" class="node"><title>node_modules/ramda/index</title>
<ellipse fill="none" stroke="#cfffac" cx="809.336" cy="-18" rx="125.378" ry="18"/>
<text text-anchor="middle" x="809.336" y="-14.3" font-family="Arial" font-size="14.00" fill="#cfffac">node_modules/ramda/index</text>
</g>
<!-- src/index&#45;&gt;node_modules/ramda/index -->
<g id="edge3" class="edge"><title>src/index&#45;&gt;node_modules/ramda/index</title>
<path fill="none" stroke="#757575" d="M537.486,-79.992C587.141,-68.8514 672.672,-49.6619 734.556,-35.7777"/>
<polygon fill="#757575" stroke="#757575" points="735.67,-39.1149 744.661,-33.5105 734.137,-32.2847 735.67,-39.1149"/>
</g>
</g>
</svg>
