<?xml version="1.0" encoding="UTF-8" standalone="no"?>
<!DOCTYPE svg PUBLIC "-//W3C//DTD SVG 1.1//EN"
 "http://www.w3.org/Graphics/SVG/1.1/DTD/svg11.dtd">
<!-- Generated by graphviz version 2.38.0 (20140413.2041)
 -->
<!-- Title: G Pages: 1 -->
<svg width="587pt" height="196pt"
 viewBox="0.00 0.00 586.70 195.98" xmlns="http://www.w3.org/2000/svg" xmlns:xlink="http://www.w3.org/1999/xlink">
<g id="graph0" class="graph" transform="scale(1 1) rotate(0) translate(7.992 187.992)">
<title>G</title>
<polygon fill="#000000" stroke="none" points="-7.992,7.992 -7.992,-187.992 578.711,-187.992 578.711,7.992 -7.992,7.992"/>
<!-- index -->
<g id="node1" class="node"><title>index</title>
<ellipse fill="none" stroke="#c6c5fe" cx="380.286" cy="-162" rx="32.4942" ry="18"/>
<text text-anchor="middle" x="380.286" y="-158.3" font-family="Arial" font-size="14.00" fill="#c6c5fe">index</text>
</g>
<!-- ../node_modules/fun&#45;curry/src/index -->
<g id="node2" class="node"><title>../node_modules/fun&#45;curry/src/index</title>
<ellipse fill="none" stroke="#cfffac" cx="157.286" cy="-90" rx="157.072" ry="18"/>
<text text-anchor="middle" x="157.286" y="-86.3" font-family="Arial" font-size="14.00" fill="#cfffac">../node_modules/fun&#45;curry/src/index</text>
</g>
<!-- index&#45;&gt;../node_modules/fun&#45;curry/src/index -->
<g id="edge1" class="edge"><title>index&#45;&gt;../node_modules/fun&#45;curry/src/index</title>
<path fill="none" stroke="#757575" d="M352.494,-152.276C319.061,-141.782 261.968,-123.86 218.135,-110.101"/>
<polygon fill="#757575" stroke="#757575" points="219.023,-106.711 208.434,-107.055 216.926,-113.39 219.023,-106.711"/>
</g>
<!-- lib/assert -->
<g id="node3" class="node"><title>lib/assert</title>
<ellipse fill="none" stroke="#c6c5fe" cx="380.286" cy="-90" rx="48.1917" ry="18"/>
<text text-anchor="middle" x="380.286" y="-86.3" font-family="Arial" font-size="14.00" fill="#c6c5fe">lib/assert</text>
</g>
<!-- index&#45;&gt;lib/assert -->
<g id="edge2" class="edge"><title>index&#45;&gt;lib/assert</title>
<path fill="none" stroke="#757575" d="M380.286,-143.697C380.286,-135.983 380.286,-126.712 380.286,-118.112"/>
<polygon fill="#757575" stroke="#757575" points="383.786,-118.104 380.286,-108.104 376.786,-118.104 383.786,-118.104"/>
</g>
<!-- lib/set&#45;prop -->
<g id="node4" class="node"><title>lib/set&#45;prop</title>
<ellipse fill="none" stroke="#cfffac" cx="503.286" cy="-90" rx="57.3905" ry="18"/>
<text text-anchor="middle" x="503.286" y="-86.3" font-family="Arial" font-size="14.00" fill="#cfffac">lib/set&#45;prop</text>
</g>
<!-- index&#45;&gt;lib/set&#45;prop -->
<g id="edge3" class="edge"><title>index&#45;&gt;lib/set&#45;prop</title>
<path fill="none" stroke="#757575" d="M402.276,-148.485C420.536,-138.094 446.854,-123.116 468.048,-111.054"/>
<polygon fill="#757575" stroke="#757575" points="469.819,-114.073 476.779,-106.085 466.357,-107.99 469.819,-114.073"/>
</g>
<!-- ../node_modules/stringify&#45;anything/src/index -->
<g id="node5" class="node"><title>../node_modules/stringify&#45;anything/src/index</title>
<ellipse fill="none" stroke="#cfffac" cx="380.286" cy="-18" rx="190.366" ry="18"/>
<text text-anchor="middle" x="380.286" y="-14.3" font-family="Arial" font-size="14.00" fill="#cfffac">../node_modules/stringify&#45;anything/src/index</text>
</g>
<!-- lib/assert&#45;&gt;../node_modules/stringify&#45;anything/src/index -->
<g id="edge4" class="edge"><title>lib/assert&#45;&gt;../node_modules/stringify&#45;anything/src/index</title>
<path fill="none" stroke="#757575" d="M380.286,-71.6966C380.286,-63.9827 380.286,-54.7125 380.286,-46.1124"/>
<polygon fill="#757575" stroke="#757575" points="383.786,-46.1043 380.286,-36.1043 376.786,-46.1044 383.786,-46.1043"/>
</g>
</g>
</svg>
